<svg width="128" height="260" viewBox="0 0 128 260" fill="none" xmlns="http://www.w3.org/2000/svg">
<path d="M108.244 38.3739C103.444 44.4261 94.6783 45.4696 88.6261 40.4609C82.5739 35.6609 81.7392 26.687 86.5392 20.6348C91.3392 14.5826 100.104 13.5391 106.157 18.5478C112.209 23.3478 113.044 32.3217 108.244 38.3739Z" fill="#231F20"/>
<path d="M89.4609 60.2869C85.7043 62.1652 80.9044 61.9565 76.9391 59.8695L66.087 74.6869C67.5478 76.3565 68.1739 78.2347 68.3826 80.3217C68.3826 82.1999 67.9652 84.0782 66.9217 85.7478C64.2087 90.1304 58.5739 91.3825 54.1913 88.4608C53.7739 88.2521 53.3565 87.8347 52.9391 87.4173C52.9391 87.4173 52.7304 87.2086 52.5217 86.9999C52.313 86.7912 52.1043 86.3738 51.8957 86.1652C51.8957 86.1652 51.8957 85.9565 51.687 85.7478C51.4783 85.3304 51.2696 84.913 51.0609 84.4956C51.0609 84.4956 51.0609 84.2869 51.0609 84.0782C51.0609 83.6608 50.8522 83.4521 50.6435 83.0347C50.6435 83.0347 50.6435 82.826 50.6435 82.6173C50.6435 82.1999 50.6435 81.7826 50.4348 81.1565V80.7391C50.4348 80.3217 50.4348 79.9043 50.4348 79.4869C50.4348 78.6521 50.4348 78.2347 50.6435 77.8173C50.6435 77.8173 50.6435 77.6086 50.6435 77.3999C50.6435 76.9825 51.0609 76.3565 51.2696 75.9391L42.5043 69.2608L39.7913 73.0173L29.7739 65.2956L37.287 55.0695L47.3043 62.7912L44.5913 66.5478L53.5652 73.4347C56.2783 71.1391 60.2435 70.513 63.5826 72.3912L74.4348 57.7825C70.0522 53.3999 69.0087 46.513 72.1391 40.8782C72.7652 39.8347 73.6 38.7912 74.4348 37.9565C68.5913 33.7825 61.287 31.4869 53.5652 31.4869C32.6957 31.2782 16 48.1825 16 69.0521C16 89.9217 32.487 106.826 53.1478 106.826C73.6 106.826 90.2957 90.1304 90.5043 69.2608C90.5043 66.1304 90.087 63.2086 89.4609 60.4956V60.2869Z" fill="#EE0C5D"/>
<path d="M108.879 176.172C104.046 182.266 95.2202 183.316 89.1263 178.273C83.0325 173.44 82.1919 164.404 87.025 158.31C91.8581 152.216 100.684 151.166 106.778 156.209C112.871 161.042 113.712 170.078 108.879 176.172Z" fill="white"/>
<path d="M89.967 198.236C86.1846 200.127 81.3515 199.917 77.359 197.815L66.432 212.735C67.903 214.416 68.5334 216.307 68.7435 218.408C68.7435 220.3 68.3232 222.191 67.2726 223.872C64.5408 228.285 58.8672 229.546 54.4544 226.604C54.0341 226.394 53.6139 225.973 53.1936 225.553C53.1936 225.553 52.9835 225.343 52.7733 225.133C52.5632 224.923 52.3531 224.502 52.1429 224.292C52.1429 224.292 52.1429 224.082 51.9328 223.872C51.7227 223.452 51.5125 223.031 51.3024 222.611C51.3024 222.611 51.3024 222.401 51.3024 222.191C51.3024 221.771 51.0923 221.56 50.8821 221.14C50.8821 221.14 50.8821 220.93 50.8821 220.72C50.8821 220.3 50.8821 219.879 50.672 219.249V218.829C50.672 218.408 50.672 217.988 50.672 217.568C50.672 216.727 50.672 216.307 50.8821 215.887C50.8821 215.887 50.8821 215.677 50.8821 215.467C50.8821 215.046 51.3024 214.416 51.5125 213.996L42.6869 207.271L39.9552 211.054L29.8688 203.279L37.4336 192.982L47.52 200.757L44.7883 204.54L53.824 211.474C56.5557 209.163 60.5483 208.532 63.9104 210.423L74.8374 195.714C70.4246 191.301 69.3739 184.367 72.5259 178.693C73.1563 177.643 73.9968 176.592 74.8374 175.751C68.9536 171.549 61.5989 169.237 53.824 169.237C32.8107 169.027 16 186.048 16 207.061C16 228.075 32.6005 245.095 53.4037 245.095C73.9968 245.095 90.8075 228.285 91.0176 207.271C91.0176 204.119 90.5974 201.177 89.967 198.446V198.236Z" fill="#EE0C5D"/>
</svg>
